<?xml version="1.0" standalone="no"?>
<!DOCTYPE svg PUBLIC "-//W3C//DTD SVG 20010904//EN"
 "http://www.w3.org/TR/2001/REC-SVG-20010904/DTD/svg10.dtd">
<svg version="1.0" xmlns="http://www.w3.org/2000/svg"
 width="310.000000pt" height="310.000000pt" viewBox="0 0 310.000000 310.000000"
 preserveAspectRatio="xMidYMid meet">

<g transform="translate(0.000000,310.000000) scale(0.100000,-0.100000)"
fill="#000000" stroke="none">
<path d="M140 2560 l0 -390 390 0 390 0 0 390 0 390 -390 0 -390 0 0 -390z
m670 0 l0 -280 -280 0 -280 0 0 280 0 280 280 0 280 0 0 -280z"/>
<path d="M367 2723 c-4 -3 -7 -80 -7 -170 l0 -163 170 0 170 0 0 170 0 170
-163 0 c-90 0 -167 -3 -170 -7z"/>
<path d="M1150 2895 l0 -55 110 0 110 0 0 -55 0 -55 -110 0 -110 0 0 -60 0
-60 -55 0 -55 0 0 -110 0 -110 55 0 55 0 0 -55 0 -55 -55 0 -55 0 0 -55 0 -55
55 0 55 0 0 -115 0 -115 55 0 55 0 0 -55 0 -55 -110 0 -110 0 0 110 0 110
-170 0 -170 0 0 -55 0 -55 110 0 110 0 0 -55 0 -55 -55 0 -55 0 0 -55 0 -55
55 0 55 0 0 -55 0 -55 -165 0 -165 0 0 55 0 55 -55 0 -55 0 0 55 0 55 55 0 55
0 0 55 0 55 -55 0 -55 0 0 -55 0 -55 -60 0 -60 0 0 110 0 110 -110 0 -110 0 0
-55 0 -55 55 0 55 0 0 -110 0 -110 -55 0 -55 0 0 -55 0 -55 55 0 55 0 0 -60 0
-60 -55 0 -55 0 0 -220 0 -220 55 0 55 0 0 165 0 165 55 0 55 0 0 -110 0 -110
60 0 60 0 0 -55 0 -55 110 0 110 0 0 55 0 55 55 0 55 0 0 -55 0 -55 115 0 115
0 0 -170 0 -170 55 0 55 0 0 -55 0 -55 55 0 55 0 0 55 0 55 55 0 55 0 0 -55 0
-55 55 0 55 0 0 -55 0 -54 58 -3 57 -3 0 -55 0 -55 -57 -3 -58 -3 0 -54 0 -55
-110 0 -110 0 0 115 0 115 -55 0 -54 0 -3 -58 -3 -57 -52 -3 -53 -3 0 -110 0
-109 335 0 335 0 0 110 0 110 55 0 55 0 0 60 0 60 -55 0 -55 0 0 55 0 55 -115
0 -115 0 0 110 0 110 115 0 115 0 0 -55 0 -55 55 0 55 0 0 -55 0 -55 110 0
110 0 0 -54 0 -55 -52 -3 -53 -3 -3 -168 -2 -167 55 0 55 0 0 170 0 170 115 0
116 0 -3 -57 -3 -58 -52 -3 -53 -3 0 -110 0 -109 55 0 55 0 0 55 0 55 110 0
110 0 0 -55 0 -55 55 0 55 0 0 55 0 55 -55 0 -55 0 0 55 0 55 -55 0 -55 0 0
60 0 60 -55 0 -55 0 0 55 0 55 110 0 110 0 0 -55 0 -55 55 0 54 0 3 -57 3 -58
55 0 55 0 3 58 3 58 52 -3 52 -3 3 -168 2 -167 55 0 55 0 0 390 0 390 -55 0
-55 0 0 -110 0 -110 -170 0 -170 0 0 55 0 55 55 0 55 0 0 54 0 55 -52 3 -53 3
-3 113 -3 112 -54 0 -55 0 0 110 0 110 -55 0 -55 0 0 -55 0 -55 -115 0 -115 0
0 -55 0 -55 -110 0 -110 0 0 55 0 55 55 0 55 0 0 55 0 55 55 0 55 0 0 54 0 55
-52 3 -53 3 -3 58 -3 57 55 0 55 0 3 53 3 52 58 3 57 3 0 -116 0 -115 110 0
110 0 0 60 0 60 110 0 110 0 0 110 0 110 60 0 60 0 0 -55 0 -55 55 0 55 0 0
-115 0 -115 -55 0 -55 0 0 -110 0 -110 -60 0 -60 0 0 55 0 55 -55 0 -55 0 0
-55 0 -55 55 0 55 0 2 -167 3 -168 55 0 55 0 3 168 2 167 55 0 55 0 0 -55 0
-55 55 0 55 0 0 110 0 110 -55 0 -55 0 0 55 0 55 55 0 55 0 0 170 0 170 -55 0
-55 0 0 55 0 54 -112 3 -113 3 -3 53 -3 52 -110 0 -109 0 0 -55 0 -55 -55 0
-55 0 0 -55 0 -55 55 0 55 0 0 -55 0 -55 -110 0 -110 0 0 55 0 55 -60 0 -60 0
0 55 0 55 -165 0 -165 0 0 55 0 55 165 0 165 0 0 115 0 115 -55 0 -55 0 0 -55
0 -55 -55 0 -55 0 0 110 0 110 -55 0 -55 0 0 110 0 110 55 0 55 0 0 170 0 170
-55 0 -55 0 0 -55 0 -55 -115 0 -115 0 0 55 0 55 -165 0 -165 0 0 -55z m558
-227 l3 -58 -56 0 -55 0 0 -55 0 -55 -60 0 -60 0 0 -55 0 -55 115 0 115 0 -2
-167 -3 -168 -52 -3 -53 -3 0 116 0 116 -57 -3 -58 -3 0 -165 0 -165 58 -3 57
-3 0 -54 0 -55 -115 0 -115 0 0 -55 0 -55 -55 0 -55 0 0 -55 0 -55 -110 0
-110 0 0 55 0 55 -60 0 -60 0 0 55 0 55 60 0 60 0 0 -55 0 -55 110 0 110 0 0
55 0 55 55 0 55 0 0 110 0 110 -55 0 -55 0 0 60 0 60 -55 0 -55 0 0 55 0 55
55 0 55 0 0 -55 0 -55 55 0 55 0 0 165 0 165 55 0 55 0 0 108 c0 60 3 112 7
116 4 3 54 5 112 4 l106 -3 3 -57z m-448 -168 l0 -110 -55 0 -55 0 0 110 0
110 55 0 55 0 0 -110z m-780 -835 l0 -55 55 0 55 0 0 -60 0 -60 280 0 280 0 0
-55 0 -55 -170 0 -170 0 0 -55 0 -55 225 0 225 0 0 -55 0 -55 -55 0 -55 0 0
-55 0 -55 -55 0 -55 0 0 55 0 55 -115 0 -115 0 0 55 0 55 -110 0 -110 0 0 -55
0 -55 -55 0 -55 0 0 55 0 55 55 0 55 0 0 110 0 110 -55 0 -55 0 0 -55 0 -55
-60 0 -60 0 0 55 0 55 60 0 60 0 0 60 0 60 -60 0 -60 0 0 48 c0 27 3 52 7 55
3 4 30 7 60 7 l53 0 0 -55z m1230 0 l0 -55 -55 0 -54 0 -3 -57 -3 -58 -58 -3
-58 -3 3 -52 3 -52 58 -3 57 -3 0 -54 0 -55 -60 0 -60 0 0 -110 0 -110 60 0
60 0 0 55 0 55 55 0 55 0 0 -55 0 -55 55 0 55 0 0 -60 0 -60 55 0 55 0 0 -55
0 -55 -55 0 -55 0 0 55 0 55 -170 0 -170 0 0 -55 0 -55 -55 0 -55 0 2 393 3
392 53 3 52 3 0 48 c0 26 3 51 7 54 3 4 55 7 115 7 l108 0 0 -55z m220 0 l0
-55 -55 0 -55 0 0 55 0 55 55 0 55 0 0 -55z m-110 -230 l0 -55 -55 0 -55 0 0
55 0 55 55 0 55 0 0 -55z m560 -555 l0 -170 -170 0 -170 0 0 163 c0 90 3 167
7 170 3 4 80 7 170 7 l163 0 0 -170z m-1120 -60 l0 -110 -55 0 -55 0 0 110 0
110 55 0 55 0 0 -110z m1460 -275 l0 -55 -60 0 -60 0 0 48 c0 27 3 52 7 55 3
4 30 7 60 7 l53 0 0 -55z"/>
<path d="M2160 875 l0 -55 55 0 55 0 0 55 0 55 -55 0 -55 0 0 -55z"/>
<path d="M2160 2560 l0 -390 390 0 390 0 0 390 0 390 -390 0 -390 0 0 -390z
m670 0 l0 -280 -280 0 -280 0 0 280 0 280 280 0 280 0 0 -280z"/>
<path d="M2380 2560 l0 -170 170 0 170 0 -2 168 -3 167 -167 3 -168 2 0 -170z"/>
<path d="M1930 2785 l0 -55 55 0 55 0 0 55 0 55 -55 0 -55 0 0 -55z"/>
<path d="M1930 2500 l0 -110 55 0 55 0 0 110 0 110 -55 0 -55 0 0 -110z"/>
<path d="M140 540 l0 -390 390 0 390 0 0 390 0 390 -390 0 -390 0 0 -390z
m670 0 l0 -280 -280 0 -280 0 0 280 0 280 280 0 280 0 0 -280z"/>
<path d="M362 543 l3 -168 168 -3 167 -2 0 170 0 170 -170 0 -170 0 2 -167z"/>
</g>
</svg>
